<?xml version="1.0" standalone="no"?>
<!DOCTYPE svg PUBLIC "-//W3C//DTD SVG 20010904//EN"
 "http://www.w3.org/TR/2001/REC-SVG-20010904/DTD/svg10.dtd">
<svg version="1.0" xmlns="http://www.w3.org/2000/svg"
 width="512.000000pt" height="512.000000pt" viewBox="0 0 512.000000 512.000000"
 preserveAspectRatio="xMidYMid meet">
<metadata>
Created by potrace 1.16, written by Peter Selinger 2001-2019
</metadata>
<g transform="translate(0.000000,512.000000) scale(0.100000,-0.100000)"
fill="#000000" stroke="none">
<path d="M4125 2900 l-110 -110 125 -125 124 -125 33 32 33 32 80 -79 80 -80
-257 -257 -258 -258 0 -46 c0 -54 20 -74 74 -74 34 0 55 19 336 300 281 281
299 301 299 335 0 32 -11 47 -119 155 l-119 119 22 24 c12 13 22 26 22 29 0 9
-230 233 -243 236 -7 1 -61 -47 -122 -108z"/>
<path d="M2881 1646 c-161 -162 -292 -299 -290 -305 2 -6 53 -60 113 -121
l109 -110 296 292 c163 161 297 295 299 298 1 3 -51 58 -116 123 l-118 117
-293 -294z"/>
</g>
</svg>
